PathFileType	4	(X/Y/Z)	path1_03_0-527.trc
DataRate	CameraRate	NumFrames	NumMarkers	Units	OrigDataRate	OrigDataStartFrame	OrigNumFrames
30	30	9	22	m	30	197	527
Frame#	Time	Hip			RHip			RKnee			RAnkle			RBigToe			RSmallToe			RHeel			LHip			LKnee			LAnkle			LBigToe			LSmallToe			LHeel			Neck			Head			Nose			RShoulder			RElbow			RWrist			LShoulder			LElbow			LWrist		
		X1	Y1	Z1	X2	Y2	Z2	X3	Y3	Z3	X4	Y4	Z4	X5	Y5	Z5	X6	Y6	Z6	X7	Y7	Z7	X8	Y8	Z8	X9	Y9	Z9	X10	Y10	Z10	X11	Y11	Z11	X12	Y12	Z12	X13	Y13	Z13	X14	Y14	Z14	X15	Y15	Z15	X16	Y16	Z16	X17	Y17	Z17	X18	Y18	Z18	X19	Y19	Z19	X20	Y20	Z20	X21	Y21	Z21	X22	Y22	Z22
198	6.6	2.64002451668485	0.8303098615429004	0.6906444407675054	2.649676991730602	0.7949054607502418	0.6153355542797526	2.6205146465161704	0.46858778465975925	0.5903547753449667	2.6885241165282436	0.09881673504769109	0.6111396156437425	2.5047462377301435	0.025431852908005374	0.5879894753155791	2.538278030417922	0.02482851838303495	0.5194576060355841	2.742666663711723	0.02714920275317202	0.6205063303550543	2.631869573257646	0.7963812827084711	0.7770543288108758	2.6313456352822424	0.44036821106528357	0.7708189851547506	2.6825742030452133	0.10192276067620773	0.7761181171875553	2.521565243562806	0.004396947666338096	0.7838601362173266	2.5270982156475266	0.03135950966495452	0.8358073989842654	2.7373751355125675	0.030332196281569454	0.7707847102291832	2.5944760598703556	1.460793777904616	0.7013723430835861	2.540969273009646	1.7044024513884812	0.6450410023059929	2.4563162897191018	1.597375173014823	0.6695417508512232	2.6514603679196576	1.3599086959538322	0.5332870766893948	2.6791477933549155	1.0669607405345576	0.5198550370640351	2.6129644727302828	0.845046414140051	0.4690284320854829	2.5963236068849977	1.3417423758609068	0.8695286195219626	2.6562926032863343	1.0663555293126799	0.8919265371894193	2.6411535743460903	0.8367877272262051	0.8954474541643698
199	6.633333333333334	2.6400375279313018	0.8302736998916413	0.6908376003807049	2.6497722879508707	0.7954099119870576	0.6156876848651748	2.6201511917611358	0.46884022523625873	0.5903387722415561	2.691949001789386	0.09641497815329375	0.6155318904006027	2.5049924029441946	0.025381765365031617	0.5888363757150086	2.5380254408622456	0.025033277406816327	0.519559900879258	2.7428820221829886	0.02731788847798975	0.6215818689557779	2.6317921543163707	0.7968728584940556	0.7772629861112216	2.632430482999445	0.4394396447339307	0.7704356865919567	2.681916870982672	0.10210163287773646	0.7751205492084405	2.521124557121169	0.005072917423604301	0.7833855984444138	2.5267734793451018	0.031583693216219226	0.8356871650401159	2.736121180460733	0.030338256869726948	0.7689211727694051	2.592607281378425	1.459024263630819	0.7002247498416574	2.537937865334586	1.7015560891555097	0.6506733231375312	2.456237599816779	1.596825599346095	0.6705848078794303	2.6509707207137514	1.3599368138093464	0.5333882182155604	2.678096648246337	1.0668026025584776	0.5188206436235827	2.6129589201313554	0.8447346940451336	0.46900722976615905	2.596195210059242	1.3416219738408859	0.8696277552879911	2.6561228762867826	1.0663604372399664	0.8918764448247767	2.640802353249575	0.8366777516986967	0.8955910683081426
200	6.666666666666667	2.6401225157419734	0.8303863773059648	0.6909345796990327	2.6497281503018937	0.7961842517385475	0.6158806573235407	2.6197699170242728	0.4691944871454193	0.5902131427646156	2.6941153480992486	0.09494907929461097	0.6182967487780552	2.5052321215619666	0.025568602360190203	0.5896534935475323	2.5378704424912426	0.02529093613242087	0.5196874684988698	2.7428677915130963	0.02752671696428246	0.6223229585926393	2.6317520383514443	0.7976959483815199	0.7773685875949818	2.6332427642518392	0.43902230887644395	0.77010509575248	2.6818790363805673	0.10195218137957286	0.7751667990724759	2.5202071183513697	0.006758559535050949	0.7837082306356442	2.526916314284788	0.0319270498147932	0.8357796298567425	2.73535548746892	0.030302505985402156	0.7679672798158379	2.5905026988464437	1.4570072750441172	0.6989766226440238	2.534660028498512	1.6987262227838416	0.6565577735038834	2.45617630155003	1.59640273896041	0.671628242035277	2.650410599376191	1.3600772298962547	0.5334856737657641	2.6765892227993975	1.066737654373218	0.5170079135519352	2.6130088736393224	0.8443359265707702	0.4689754352572778	2.596062816902785	1.341597013231281	0.869680972736956	2.655976978294265	1.0663704240298044	0.8918067134587592	2.6405864046246736	0.8367152060332848	0.8955925090844632
201	6.7	2.640263001592719	0.8306059470580289	0.6909043739713414	2.6495773701700025	0.7969831073411926	0.615803126563269	2.61948077295868	0.4695303280999553	0.5899882381776639	2.6944350922796345	0.09481738748891078	0.6186946255565663	2.505192312269273	0.026057091569509187	0.5900046898797162	2.5377996041609716	0.025526469920733947	0.5198147637870337	2.7425740939611716	0.027993730627298062	0.6230706181625758	2.631706228008736	0.7985997500193783	0.7773480508230524	2.6335887021378177	0.439139040036073	0.7699230364558463	2.6820974226660543	0.10175130544595036	0.775925865085428	2.519023073682588	0.009082906896916992	0.7849886260525047	2.527263731132213	0.03241944643686534	0.8360613859364876	2.735167431934495	0.030279182306270896	0.7681387267837656	2.5887775327674847	1.4553699184001012	0.698035215021438	2.53178089675618	1.696402285524521	0.6616438828265242	2.4561055630180633	1.5961760196650745	0.6723458990085187	2.6498635566186746	1.360281421491058	0.533635213324136	2.6748376368761866	1.0667811925803017	0.5145375611135913	2.613094753085396	0.8439462612101944	0.4689173220635209	2.5958664677071273	1.3416707222168385	0.8696871876018935	2.6558745793959773	1.0663784378315537	0.8917271354526518	2.64048144092916	0.8368547751671256	0.8954741821795926
202	6.733333333333333	2.64036753540092	0.8308123587060409	0.6907270223099409	2.649309808354126	0.7974669460976863	0.6154123872196668	2.619393622984893	0.4697106581394351	0.5897071129864009	2.6931479113148056	0.09583703945370312	0.6170991320754987	2.5045187650829535	0.026750032540005544	0.5894597552878786	2.537730365266253	0.02565590681188071	0.5198866233879426	2.7419959108278515	0.028698404373991952	0.6237657413881013	2.6316219544645922	0.7992014359555754	0.7771344392580752	2.6337020475835557	0.43938850390770706	0.7697793345541919	2.6822594853831787	0.10173941812317144	0.7768602497045466	2.518183282749441	0.01102078656473543	0.7867482581581019	2.527665038867628	0.03286790921461255	0.836398229702845	2.735565975456698	0.030238008198229936	0.7692279551047414	2.588009510156512	1.4547360548246964	0.697771752041437	2.5296237101857386	1.694709842316962	0.6654243121141183	2.45592813446751	1.5962104937627737	0.6726222811344943	2.6494297919967433	1.3604711197897148	0.5337853496478655	2.67332292853633	1.06693082767108	0.5121498807772384	2.613086014350311	0.8437124703378743	0.46881030199059454	2.5956104564980063	1.3418427877217407	0.8696395333428613	2.65581279927856	1.0663934384319549	0.8916482067847639	2.640411694499577	0.8370385984398487	0.8952735076324715
203	6.766666666666667	2.6403136323729695	0.8308961202506	0.6903937014427832	2.648867111430117	0.7973935335420962	0.6147491547423842	2.6195076838577696	0.46964844381814214	0.5894176997628378	2.691231646867473	0.097294426473559	0.614856308346579	2.502967374725118	0.027479997863848332	0.5877675715693855	2.537603781298091	0.02563666986808335	0.5198468844222383	2.7411759119154815	0.02947532569301102	0.6241153120499722	2.6315161243138836	0.7992253878903419	0.7766904262240512	2.6342435991693036	0.4390768801238888	0.7693740422232443	2.6825295411588215	0.1018077963046909	0.7778025473860731	2.5183693669327027	0.011451299057711598	0.7881019089827261	2.5280963386544646	0.032989838703252734	0.8366109500473647	2.736472248173582	0.030109120435085953	0.7707549754909546	2.5883671730160747	1.4553515500222907	0.698286163610762	2.528580411961111	1.693955882533703	0.667254017129564	2.4555334613761453	1.5965327975124224	0.6726850271793413	2.6491470296197956	1.3605595540538338	0.5337901536303117	2.6727262797891553	1.0671108694725304	0.5111228844272533	2.6128264707012896	0.8437442960435174	0.46865579804343127	2.5953550716376967	1.3420847893273595	0.8695497280600883	2.65576877924502	1.0664329882785968	0.8915901971595518	2.6403489953819768	0.8372169697339269	0.8950235828012878
204	6.8	2.640016162757655	0.8308441839607494	0.6899019272351277	2.6481997728151905	0.796826847746235	0.6138960209983967	2.6196861151316195	0.46936803994616383	0.5891817033008941	2.6897325745725076	0.09843979809342024	0.6133263379690405	2.5006273002582726	0.028108625770294812	0.585086419720692	2.5374536868349975	0.025485484825263097	0.519687030290633	2.7402814406959917	0.03014292761606729	0.6239885853901277	2.6313875621950666	0.7987242344178637	0.7760508105516807	2.6356870929902536	0.43781917172604706	0.7684851263960824	2.6830154426365835	0.10182151332732187	0.7786631070463959	2.5195775394702196	0.010072299780499524	0.7882379876807757	2.5284830256165547	0.032684571242383026	0.8365863901454392	2.737518653022037	0.029923491367012278	0.7721533614647037	2.5895264615754634	1.4569592150513122	0.6993258738682443	2.529081621655994	1.6947187500169463	0.6664566015711472	2.4549180788823706	1.597104118576347	0.6729731466244459	2.648965345935312	1.3604945130118309	0.533515596389917	2.673326037851863	1.067247393250816	0.5121175232392404	2.6122554443818395	0.8440173270486031	0.4685066354824673	2.5951471282901886	1.3423465927779328	0.8694613975714558	2.655715170782045	1.0665100241741963	0.8915631387720963	2.640292194364825	0.8373767127932624	0.8947492564735945
205	6.833333333333333	2.639477632227683	0.8307442654729402	0.6892899363335793	2.6472978084561247	0.7961479306963453	0.6129062622982839	2.619760611283605	0.4689955121312068	0.589088435337075	2.689189671167658	0.09890065172092141	0.6131162478387094	2.4980423152479543	0.02852522427935631	0.5821645301930162	2.537394190580151	0.0252648859806902	0.5194766411479056	2.7396230920250493	0.030511816739056778	0.6235060263892537	2.6312347399282947	0.7980526830936439	0.7752964093886843	2.6378980320048213	0.4358945328207522	0.7671908860327133	2.683675359679378	0.10171694686772381	0.7793833133988627	2.521116461524401	0.007583048235207886	0.7870506411289984	2.5287097185562253	0.032089889243459804	0.8363407039872062	2.738419105960068	0.029747967492379013	0.7731552082720515	2.5908582587728195	1.458907658354558	0.7004184865365048	2.5311336255209587	1.6972430111752494	0.6631434717380457	2.4542299544372255	1.5977886043909626	0.6738026962877101	2.6487749681971935	1.3602966340510945	0.5329373973855466	2.674561022640076	1.0673259061364586	0.5143365683323365	2.611448186615532	0.8444064243240208	0.46845224245383726	2.5949842042639695	1.3425846200350455	0.8694222540821013	2.6556498803930277	1.0665957916238464	0.8915517624583756	2.640212318790938	0.8375172050943893	0.8944708773602982
206	6.866666666666666	2.6387872392442437	0.8307150443683675	0.688685013463509	2.646222142188727	0.7957585359626157	0.6118470358970042	2.6196449267191384	0.4686891591698161	0.5892061567982787	2.6895057166302894	0.09873321150770947	0.613962025004277	2.4960249155224528	0.028685903573012025	0.579995929453757	2.537546713304638	0.02504072915122719	0.5193253745896047	2.739430911857973	0.03042665753387157	0.6227807132049311	2.6311433786740124	0.7975866177738938	0.7745421945833134	2.64021475529256	0.43406647835331663	0.7659059531121243	2.68467612277497	0.10134068604309623	0.780165693386023	2.5223556591132237	0.005030854032944461	0.7853022434263862	2.528783751855612	0.0314140686614969	0.8359855667396114	2.7393600394872197	0.029556971183465786	0.7739318213286129	2.591842451092972	1.4605535489635522	0.7012120543024596	2.5342941165545536	1.7011235678505654	0.6582895495790272	2.4536627175639696	1.5984045015991653	0.6751137550596468	2.6484645682245733	1.3600561924592272	0.532204916110694	2.67553657442743	1.067356398678954	0.5163525483764545	2.610580268772776	0.8447840026127917	0.46855344879394856	2.5948570337606833	1.342772272553767	0.8694490038727171	2.6555871695913496	1.0666351376486805	0.8915314586809759	2.640078211588794	0.8376006015524057	0.8942153894995208
